<?xml version="1.0" ?><svg xmlns="http://www.w3.org/2000/svg" xmlns:xlink="http://www.w3.org/1999/xlink" version="1.1" viewBox="0 0 512 512" style="enable-background:new 0 0 512 512;" xml:space="preserve"><g id="_x31_0_x2C__Grocery_x2C__supermarket_x2C__shop_x2C__goods_x2C__food_and_restaurant_x2C__shopping_store"><g><g><path style="fill:#DC5461;" d="M308.499,203.5h-105c-20.678,0-37.5,16.822-37.5,37.5v112.5c0,4.143,3.357,7.5,7.5,7.5     s7.5-3.357,7.5-7.5V241c0-12.406,10.094-22.5,22.5-22.5h105c12.406,0,22.5,10.094,22.5,22.5v217.5c0,4.143,3.357,7.5,7.5,7.5     s7.5-3.357,7.5-7.5V241C345.999,220.322,329.177,203.5,308.499,203.5z"/><path style="fill:#DC5461;" d="M173.499,376c-4.143,0-7.5,3.357-7.5,7.5v75c0,4.143,3.357,7.5,7.5,7.5s7.5-3.357,7.5-7.5v-75     C180.999,379.357,177.642,376,173.499,376z"/><path style="fill:#DC5461;" d="M409.749,203.5c-26.881,0-48.75,21.869-48.75,48.75v56.25c0,4.143,3.357,7.5,7.5,7.5h82.5     c4.143,0,7.5-3.357,7.5-7.5v-56.25C458.499,225.369,436.63,203.5,409.749,203.5z M409.749,218.5c17.341,0,31.665,13.15,33.537,30     h-67.073C378.085,231.65,392.408,218.5,409.749,218.5z M375.999,301v-37.5h67.5V301H375.999z"/><path style="fill:#DC5461;" d="M102.249,203.5c-26.881,0-48.75,21.869-48.75,48.75v56.25c0,4.143,3.357,7.5,7.5,7.5h82.5     c4.143,0,7.5-3.357,7.5-7.5v-56.25C150.999,225.369,129.13,203.5,102.249,203.5z M102.249,218.5c17.341,0,31.665,13.15,33.537,30     H68.713C70.585,231.65,84.908,218.5,102.249,218.5z M68.499,301v-37.5h67.5V301H68.499z"/><path style="fill:#DC5461;" d="M308.499,319.75c-4.143,0-7.5,3.357-7.5,7.5v15c0,4.143,3.357,7.5,7.5,7.5s7.5-3.357,7.5-7.5v-15     C315.999,323.107,312.642,319.75,308.499,319.75z"/></g><g><path style="fill:#283954;" d="M480.999,256c4.143,0,7.5-3.357,7.5-7.5v-82.703c13.517-8.675,22.5-23.827,22.5-41.047     c-0.008-19.678,0.036-19.09-0.087-19.891l-10.484-68.148C497.244,16.019,479.738,1,458.802,1C396.433,1,112.845,1,53.196,1     C32.26,1,14.754,16.019,11.571,36.711c-8.39,54.621-10.469,67.665-10.545,68.762c-0.042,0.597-0.013,2.094-0.027,19.278     c0,17.22,8.983,32.372,22.5,41.047v286.147c-12.621,3.234-22.5,14.754-22.5,29.056c0,16.542,13.458,30,30,30h92.83     c4.143,0,7.5-3.357,7.5-7.5s-3.357-7.5-7.5-7.5h-92.83c-8.271,0-15-6.729-15-15c0-8.289,6.709-15,15-15h450     c8.271,0,15,6.729,15,15c0,8.289-6.709,15-15,15h-327.17c-4.143,0-7.5,3.357-7.5,7.5s3.357,7.5,7.5,7.5h327.17     c16.582,0,30-13.417,30-30c0-13.953-9.575-25.712-22.5-29.051V278.5c0-4.143-3.357-7.5-7.5-7.5s-7.5,3.357-7.5,7.5V451h-435     V172.175c20.581,4.882,41.477-4.021,52.5-21.492c8.64,13.694,23.896,22.817,41.25,22.817s32.61-9.122,41.25-22.817     c8.64,13.694,23.896,22.817,41.25,22.817s32.61-9.122,41.25-22.817c8.64,13.694,23.895,22.817,41.25,22.817     s32.61-9.122,41.25-22.817c8.64,13.694,23.896,22.817,41.25,22.817s32.61-9.122,41.25-22.817     c11.02,17.466,31.914,26.376,52.5,21.492V248.5C473.499,252.643,476.857,256,480.999,256z M485.602,38.992l9.155,59.508H427.77     c-1.531-14.923-6.293-61.351-8.462-82.5h39.494C472.281,16,483.553,25.67,485.602,38.992z M404.229,16     c1.531,14.923,6.293,61.351,8.462,82.5h-67.066L341.394,16H404.229z M263.499,16h62.875l4.231,82.5h-67.105V16z M248.499,98.5     h-67.105l4.231-82.5h62.875V98.5z M166.374,98.5H99.308c1.384-13.492,6.308-61.498,8.462-82.5h62.835L166.374,98.5z      M26.397,38.992C28.446,25.67,39.717,16,53.196,16h39.494c-1.384,13.492-6.308,61.498-8.462,82.5H17.241L26.397,38.992z      M49.749,158.5c-18.609,0-33.75-15.141-33.75-33.75V113.5h67.5v11.25C83.499,143.359,68.359,158.5,49.749,158.5z M132.249,158.5     c-18.609,0-33.75-15.141-33.75-33.75V113.5h67.5v11.25C165.999,143.359,150.859,158.5,132.249,158.5z M214.749,158.5     c-18.609,0-33.75-15.141-33.75-33.75V113.5h67.5v11.25C248.499,143.359,233.359,158.5,214.749,158.5z M297.249,158.5     c-18.609,0-33.75-15.141-33.75-33.75V113.5h67.5v11.25C330.999,143.359,315.859,158.5,297.249,158.5z M379.749,158.5     c-18.609,0-33.75-15.141-33.75-33.75V113.5h67.5v11.25C413.499,143.359,398.359,158.5,379.749,158.5z M428.499,124.75V113.5h67.5     v11.25c0,18.609-15.141,33.75-33.75,33.75S428.499,143.359,428.499,124.75z"/></g></g></g><g id="Layer_1"/></svg>